<svg width="2087" height="2053" viewBox="0 0 2087 2053" fill="none" xmlns="http://www.w3.org/2000/svg">
<mask id="mask0_19_12" style="mask-type:luminance" maskUnits="userSpaceOnUse" x="0" y="0" width="2087" height="2053">
<path d="M2087 0H0V2053H2087V0Z" fill="white"/>
</mask>
<g mask="url(#mask0_19_12)">
<mask id="mask1_19_12" style="mask-type:alpha" maskUnits="userSpaceOnUse" x="0" y="0" width="2087" height="2053">
<path d="M996.272 31.601C1012.39 -11.042 1074.28 -10.3578 1089.42 32.6238L1131.7 152.673C1194.86 332.007 1298.24 495.249 1434.25 630.44C1570.26 765.63 1735.46 869.35 1917.75 933.995L2054.13 982.349C2097.54 997.744 2097.63 1057.76 2054.27 1073.27L1917.56 1122.21C1740.23 1185.7 1579.16 1286.22 1445.56 1416.78C1311.96 1547.34 1209.05 1704.8 1143.97 1878.21L1090.47 2020.79C1074.63 2062.98 1013.67 2063.09 997.678 2020.96L941.808 1873.77C876.461 1701.62 773.779 1545.35 640.816 1415.72C507.855 1286.08 347.769 1186.15 171.567 1122.8L32.3981 1072.77C-10.7133 1057.27 -10.8263 997.666 32.2215 982.014L174.11 930.408C349.577 866.588 508.884 766.455 641.134 636.849C773.388 507.242 875.464 351.223 940.384 179.462L996.272 31.601Z" fill="#3186FF"/>
</mask>
<g mask="url(#mask1_19_12)">
<g filter="url(#filter0_f_19_12)">
<path d="M1150.29 2126.52C1915.07 2126.52 2535.05 1634.53 2535.05 1027.62C2535.05 420.716 1915.07 -71.2793 1150.29 -71.2793C385.501 -71.2793 -234.48 420.716 -234.48 1027.62C-234.48 1634.53 385.501 2126.52 1150.29 2126.52Z" fill="url(#paint0_linear_19_12)"/>
</g>
</g>
</g>
<defs>
<filter id="filter0_f_19_12" x="-270.48" y="-107.279" width="2841.53" height="2269.8" filterUnits="userSpaceOnUse" color-interpolation-filters="sRGB">
<feFlood flood-opacity="0" result="BackgroundImageFix"/>
<feBlend mode="normal" in="SourceGraphic" in2="BackgroundImageFix" result="shape"/>
<feGaussianBlur stdDeviation="18" result="effect1_foregroundBlur_19_12"/>
</filter>
<linearGradient id="paint0_linear_19_12" x1="1150.28" y1="-71.2793" x2="1150.28" y2="2126.52" gradientUnits="userSpaceOnUse">
<stop/>
<stop offset="1" stop-color="#1C1C1C"/>
</linearGradient>
</defs>
</svg>
