<svg width="681" height="162" viewBox="0 0 681 162" fill="none" xmlns="http://www.w3.org/2000/svg">
<g clip-path="url(#clip0_2006_34)">
<path d="M19 46.9V145.5H59.6V79.8H26.7V63.2H109.2V79.8H76.7V145.5H118.3V16L19 46.9Z" fill="#0850C5"/>
</g>
<path d="M160.58 123L140.875 53.1818H154.477L167.057 104.489H167.705L181.136 53.1818H193.511L206.977 104.523H207.591L220.17 53.1818H233.773L214.068 123H201.591L187.614 74.0114H187.068L173.057 123H160.58ZM259.494 124.023C254.381 124.023 249.949 122.898 246.199 120.648C242.449 118.398 239.54 115.25 237.472 111.205C235.426 107.159 234.403 102.432 234.403 97.0227C234.403 91.6136 235.426 86.875 237.472 82.8068C239.54 78.7386 242.449 75.5795 246.199 73.3295C249.949 71.0795 254.381 69.9545 259.494 69.9545C264.608 69.9545 269.04 71.0795 272.79 73.3295C276.54 75.5795 279.438 78.7386 281.483 82.8068C283.551 86.875 284.585 91.6136 284.585 97.0227C284.585 102.432 283.551 107.159 281.483 111.205C279.438 115.25 276.54 118.398 272.79 120.648C269.04 122.898 264.608 124.023 259.494 124.023ZM259.562 114.136C262.335 114.136 264.653 113.375 266.517 111.852C268.381 110.307 269.767 108.239 270.676 105.648C271.608 103.057 272.074 100.17 272.074 96.9886C272.074 93.7841 271.608 90.8864 270.676 88.2955C269.767 85.6818 268.381 83.6023 266.517 82.0568C264.653 80.5114 262.335 79.7386 259.562 79.7386C256.722 79.7386 254.358 80.5114 252.472 82.0568C250.608 83.6023 249.21 85.6818 248.278 88.2955C247.369 90.8864 246.915 93.7841 246.915 96.9886C246.915 100.17 247.369 103.057 248.278 105.648C249.21 108.239 250.608 110.307 252.472 111.852C254.358 113.375 256.722 114.136 259.562 114.136ZM295.06 123V70.6364H307.026V79.3636H307.571C308.526 76.3409 310.162 74.0114 312.48 72.375C314.821 70.7159 317.491 69.8864 320.491 69.8864C321.173 69.8864 321.935 69.9205 322.776 69.9886C323.639 70.0341 324.355 70.1136 324.923 70.2273V81.5795C324.401 81.3977 323.571 81.2386 322.435 81.1023C321.321 80.9432 320.241 80.8636 319.196 80.8636C316.946 80.8636 314.923 81.3523 313.128 82.3295C311.355 83.2841 309.957 84.6136 308.935 86.3182C307.912 88.0227 307.401 89.9886 307.401 92.2159V123H295.06ZM344.372 106.568L344.338 91.6705H346.315L365.134 70.6364H379.554L356.406 96.4091H353.849L344.372 106.568ZM333.122 123V53.1818H345.463V123H333.122ZM365.986 123L348.94 99.1705L357.259 90.4773L380.747 123H365.986ZM429.165 84.4773L417.915 85.7045C417.597 84.5682 417.04 83.5 416.244 82.5C415.472 81.5 414.426 80.6932 413.108 80.0795C411.79 79.4659 410.176 79.1591 408.267 79.1591C405.699 79.1591 403.54 79.7159 401.79 80.8295C400.062 81.9432 399.21 83.3864 399.233 85.1591C399.21 86.6818 399.767 87.9205 400.903 88.875C402.063 89.8295 403.972 90.6136 406.631 91.2273L415.562 93.1364C420.517 94.2045 424.199 95.8977 426.608 98.2159C429.04 100.534 430.267 103.568 430.29 107.318C430.267 110.614 429.301 113.523 427.392 116.045C425.506 118.545 422.881 120.5 419.517 121.909C416.153 123.318 412.29 124.023 407.926 124.023C401.517 124.023 396.358 122.682 392.449 120C388.54 117.295 386.21 113.534 385.46 108.716L397.494 107.557C398.04 109.92 399.199 111.705 400.972 112.909C402.744 114.114 405.051 114.716 407.892 114.716C410.824 114.716 413.176 114.114 414.949 112.909C416.744 111.705 417.642 110.216 417.642 108.443C417.642 106.943 417.063 105.705 415.903 104.727C414.767 103.75 412.994 103 410.585 102.477L401.653 100.602C396.631 99.5568 392.915 97.7955 390.506 95.3182C388.097 92.8182 386.903 89.6591 386.926 85.8409C386.903 82.6136 387.778 79.8182 389.551 77.4545C391.347 75.0682 393.835 73.2273 397.017 71.9318C400.222 70.6136 403.915 69.9545 408.097 69.9545C414.233 69.9545 419.063 71.2614 422.585 73.875C426.131 76.4886 428.324 80.0227 429.165 84.4773ZM440.466 142.636V70.6364H452.602V79.2955H453.318C453.955 78.0227 454.852 76.6705 456.011 75.2386C457.17 73.7841 458.739 72.5455 460.716 71.5227C462.693 70.4773 465.216 69.9545 468.284 69.9545C472.33 69.9545 475.977 70.9886 479.227 73.0568C482.5 75.1023 485.091 78.1364 487 82.1591C488.932 86.1591 489.898 91.0682 489.898 96.8864C489.898 102.636 488.955 107.523 487.068 111.545C485.182 115.568 482.614 118.636 479.364 120.75C476.114 122.864 472.432 123.92 468.318 123.92C465.318 123.92 462.83 123.42 460.852 122.42C458.875 121.42 457.284 120.216 456.08 118.807C454.898 117.375 453.977 116.023 453.318 114.75H452.807V142.636H440.466ZM452.568 96.8182C452.568 100.205 453.045 103.17 454 105.716C454.977 108.261 456.375 110.25 458.193 111.682C460.034 113.091 462.261 113.795 464.875 113.795C467.602 113.795 469.886 113.068 471.727 111.614C473.568 110.136 474.955 108.125 475.886 105.58C476.841 103.011 477.318 100.091 477.318 96.8182C477.318 93.5682 476.852 90.6818 475.92 88.1591C474.989 85.6364 473.602 83.6591 471.761 82.2273C469.92 80.7955 467.625 80.0795 464.875 80.0795C462.239 80.0795 460 80.7727 458.159 82.1591C456.318 83.5455 454.92 85.4886 453.966 87.9886C453.034 90.4886 452.568 93.4318 452.568 96.8182ZM515.534 124.057C512.216 124.057 509.227 123.466 506.568 122.284C503.932 121.08 501.841 119.307 500.295 116.966C498.773 114.625 498.011 111.739 498.011 108.307C498.011 105.352 498.557 102.909 499.648 100.977C500.739 99.0455 502.227 97.5 504.114 96.3409C506 95.1818 508.125 94.3068 510.489 93.7159C512.875 93.1023 515.341 92.6591 517.886 92.3864C520.955 92.0682 523.443 91.7841 525.352 91.5341C527.261 91.2614 528.648 90.8523 529.511 90.3068C530.398 89.7386 530.841 88.8636 530.841 87.6818V87.4773C530.841 84.9091 530.08 82.9205 528.557 81.5114C527.034 80.1023 524.841 79.3977 521.977 79.3977C518.955 79.3977 516.557 80.0568 514.784 81.375C513.034 82.6932 511.852 84.25 511.239 86.0455L499.716 84.4091C500.625 81.2273 502.125 78.5682 504.216 76.4318C506.307 74.2727 508.864 72.6591 511.886 71.5909C514.909 70.5 518.25 69.9545 521.909 69.9545C524.432 69.9545 526.943 70.25 529.443 70.8409C531.943 71.4318 534.227 72.4091 536.295 73.7727C538.364 75.1136 540.023 76.9432 541.273 79.2614C542.545 81.5795 543.182 84.4773 543.182 87.9545V123H531.318V115.807H530.909C530.159 117.261 529.102 118.625 527.739 119.898C526.398 121.148 524.705 122.159 522.659 122.932C520.636 123.682 518.261 124.057 515.534 124.057ZM518.739 114.989C521.216 114.989 523.364 114.5 525.182 113.523C527 112.523 528.398 111.205 529.375 109.568C530.375 107.932 530.875 106.148 530.875 104.216V98.0455C530.489 98.3636 529.83 98.6591 528.898 98.9318C527.989 99.2045 526.966 99.4432 525.83 99.6477C524.693 99.8523 523.568 100.034 522.455 100.193C521.341 100.352 520.375 100.489 519.557 100.602C517.716 100.852 516.068 101.261 514.614 101.83C513.159 102.398 512.011 103.193 511.17 104.216C510.33 105.216 509.909 106.511 509.909 108.102C509.909 110.375 510.739 112.091 512.398 113.25C514.057 114.409 516.17 114.989 518.739 114.989ZM578.432 124.023C573.205 124.023 568.716 122.875 564.966 120.58C561.239 118.284 558.364 115.114 556.341 111.068C554.341 107 553.341 102.318 553.341 97.0227C553.341 91.7045 554.364 87.0114 556.409 82.9432C558.455 78.8523 561.341 75.6705 565.068 73.3977C568.818 71.1023 573.25 69.9545 578.364 69.9545C582.614 69.9545 586.375 70.7386 589.648 72.3068C592.943 73.8523 595.568 76.0455 597.523 78.8864C599.477 81.7045 600.591 85 600.864 88.7727H589.068C588.591 86.25 587.455 84.1477 585.659 82.4659C583.886 80.7614 581.511 79.9091 578.534 79.9091C576.011 79.9091 573.795 80.5909 571.886 81.9545C569.977 83.2955 568.489 85.2273 567.42 87.75C566.375 90.2727 565.852 93.2955 565.852 96.8182C565.852 100.386 566.375 103.455 567.42 106.023C568.466 108.568 569.932 110.534 571.818 111.92C573.727 113.284 575.966 113.966 578.534 113.966C580.352 113.966 581.977 113.625 583.409 112.943C584.864 112.239 586.08 111.227 587.057 109.909C588.034 108.591 588.705 106.989 589.068 105.102H600.864C600.568 108.807 599.477 112.091 597.591 114.955C595.705 117.795 593.136 120.023 589.886 121.636C586.636 123.227 582.818 124.023 578.432 124.023ZM634.179 124.023C628.929 124.023 624.395 122.932 620.577 120.75C616.781 118.545 613.861 115.432 611.815 111.409C609.77 107.364 608.747 102.602 608.747 97.125C608.747 91.7386 609.77 87.0114 611.815 82.9432C613.884 78.8523 616.77 75.6705 620.474 73.3977C624.179 71.1023 628.531 69.9545 633.531 69.9545C636.759 69.9545 639.804 70.4773 642.668 71.5227C645.554 72.5455 648.099 74.1364 650.304 76.2955C652.531 78.4545 654.281 81.2045 655.554 84.5455C656.827 87.8636 657.463 91.8182 657.463 96.4091V100.193H614.543V91.875H645.634C645.611 89.5114 645.099 87.4091 644.099 85.5682C643.099 83.7045 641.702 82.2386 639.906 81.1705C638.134 80.1023 636.065 79.5682 633.702 79.5682C631.179 79.5682 628.963 80.1818 627.054 81.4091C625.145 82.6136 623.656 84.2045 622.588 86.1818C621.543 88.1364 621.009 90.2841 620.986 92.625V99.8864C620.986 102.932 621.543 105.545 622.656 107.727C623.77 109.886 625.327 111.545 627.327 112.705C629.327 113.841 631.668 114.409 634.349 114.409C636.145 114.409 637.77 114.159 639.224 113.659C640.679 113.136 641.94 112.375 643.009 111.375C644.077 110.375 644.884 109.136 645.429 107.659L656.952 108.955C656.224 112 654.838 114.659 652.793 116.932C650.77 119.182 648.179 120.932 645.02 122.182C641.861 123.409 638.247 124.023 634.179 124.023Z" fill="black"/>
<defs>
<clipPath id="clip0_2006_34">
<rect width="100" height="130" fill="white" transform="translate(19 16)"/>
</clipPath>
</defs>
</svg>
