<svg width="1992" height="2856" viewBox="0 0 1992 2856" fill="none" xmlns="http://www.w3.org/2000/svg">
<rect x="284" y="592.268" width="1233" height="836" rx="418" transform="rotate(-0.941844 284 592.268)" fill="url(#paint0_linear_32_52)"/>
<rect x="555.742" y="756.823" width="348" height="409" rx="174" transform="rotate(-0.941844 555.742 756.823)" fill="white"/>
<path d="M955.186 960.455C954.255 903.819 999.413 857.151 1056.05 856.22L1198.9 853.872C1255.54 852.941 1302.21 898.099 1303.14 954.735C1304.07 1011.37 1258.91 1058.04 1202.28 1058.97L1059.42 1061.32C1002.78 1062.25 956.117 1017.09 955.186 960.455Z" fill="white"/>
<path d="M317 1857C317 1620.07 509.07 1428 746 1428H1121C1357.93 1428 1550 1620.07 1550 1857V2242H317V1857Z" fill="#666666"/>
<rect x="623" y="2242" width="619" height="78" rx="27" fill="url(#paint1_linear_32_52)"/>
<circle cx="925" cy="1821" r="213" fill="#FFCDCD"/>
<rect x="799" y="2353" width="269" height="45" fill="#FF4848" fill-opacity="0.58"/>
<rect x="873" y="2431" width="122" height="45" fill="#FF4848" fill-opacity="0.3"/>
<rect x="907" y="2509" width="54" height="45" fill="#FF4848" fill-opacity="0.06"/>
<path d="M862 1778.13V1903H913.517V1819.8H871.77V1798.77H976.453V1819.8H935.214V1903H988V1739L862 1778.13Z" fill="#5E5E5E"/>
<path d="M799 50H899L874 398H827.5L799 50Z" fill="url(#paint2_linear_32_52)"/>
<rect x="799" y="436" width="100" height="98" fill="#B30B0B" fill-opacity="0.59"/>
<defs>
<linearGradient id="paint0_linear_32_52" x1="900.5" y1="592.268" x2="900.5" y2="1428.27" gradientUnits="userSpaceOnUse">
<stop stop-color="#7E1212"/>
<stop offset="1" stop-color="#B17B7B"/>
</linearGradient>
<linearGradient id="paint1_linear_32_52" x1="623" y1="2281" x2="1242" y2="2281" gradientUnits="userSpaceOnUse">
<stop stop-color="#915C5C"/>
<stop offset="1" stop-color="#2B1B1B"/>
</linearGradient>
<linearGradient id="paint2_linear_32_52" x1="849" y1="50" x2="849" y2="398" gradientUnits="userSpaceOnUse">
<stop stop-color="#7E1212"/>
<stop offset="1" stop-color="#E42121" stop-opacity="0.24"/>
</linearGradient>
</defs>
</svg>
