<svg width="1992" height="2856" viewBox="0 0 1992 2856" fill="none" xmlns="http://www.w3.org/2000/svg">
<rect x="300.261" y="608.002" width="1201" height="804" rx="402" transform="rotate(-0.941844 300.261 608.002)" fill="url(#paint0_linear_32_52)" stroke="url(#paint1_linear_32_52)" stroke-width="32"/>
<rect x="572.003" y="772.558" width="316" height="377" rx="158" transform="rotate(-0.941844 572.003 772.558)" fill="white" stroke="url(#paint2_linear_32_52)" stroke-width="32"/>
<rect x="920.261" y="874.455" width="316" height="173.125" rx="86.5626" transform="rotate(-0.941844 920.261 874.455)" fill="white" stroke="url(#paint3_linear_32_52)" stroke-width="32"/>
<path d="M746 1444H1121C1349.09 1444 1534 1628.91 1534 1857V2226H333V1857C333 1628.91 517.906 1444 746 1444Z" fill="white" stroke="url(#paint4_linear_32_52)" stroke-width="32"/>
<rect x="629" y="2248" width="607" height="66" rx="21" fill="url(#paint5_linear_32_52)" stroke="black" stroke-width="12"/>
<circle cx="925" cy="1821" r="213" fill="#FFCDCD"/>
<rect x="799" y="2353" width="269" height="45" fill="#FF4848" fill-opacity="0.58"/>
<rect x="873" y="2431" width="122" height="45" fill="#FF4848" fill-opacity="0.3"/>
<rect x="907" y="2509" width="54" height="45" fill="#FF4848" fill-opacity="0.06"/>
<path d="M862 1778.13V1903H913.517V1819.8H871.77V1798.77H976.453V1819.8H935.214V1903H988V1739L862 1778.13Z" fill="#5E5E5E"/>
<path d="M799 50H899L874 398H827.5L799 50Z" fill="url(#paint6_linear_32_52)"/>
<rect x="799" y="436" width="100" height="98" fill="#B30B0B" fill-opacity="0.59"/>
<defs>
<linearGradient id="paint0_linear_32_52" x1="900.5" y1="592.268" x2="900.5" y2="1428.27" gradientUnits="userSpaceOnUse">
<stop stop-color="#7E1212"/>
<stop offset="1" stop-color="white"/>
</linearGradient>
<linearGradient id="paint1_linear_32_52" x1="900.5" y1="592.268" x2="900.5" y2="1428.27" gradientUnits="userSpaceOnUse">
<stop stop-color="#141111"/>
<stop offset="1" stop-color="#666666"/>
</linearGradient>
<linearGradient id="paint2_linear_32_52" x1="729.742" y1="756.823" x2="729.742" y2="1165.82" gradientUnits="userSpaceOnUse">
<stop stop-color="#141111"/>
<stop offset="1" stop-color="#666666"/>
</linearGradient>
<linearGradient id="paint3_linear_32_52" x1="1078" y1="858.72" x2="1078" y2="1063.85" gradientUnits="userSpaceOnUse">
<stop stop-color="#141111"/>
<stop offset="1" stop-color="#666666"/>
</linearGradient>
<linearGradient id="paint4_linear_32_52" x1="933.5" y1="1428" x2="933.5" y2="2242" gradientUnits="userSpaceOnUse">
<stop/>
<stop offset="1" stop-color="#666666"/>
</linearGradient>
<linearGradient id="paint5_linear_32_52" x1="623" y1="2281" x2="1242" y2="2281" gradientUnits="userSpaceOnUse">
<stop stop-color="#915C5C"/>
<stop offset="1" stop-color="#2B1B1B"/>
</linearGradient>
<linearGradient id="paint6_linear_32_52" x1="849" y1="50" x2="849" y2="398" gradientUnits="userSpaceOnUse">
<stop stop-color="#7E1212"/>
<stop offset="1" stop-color="#E42121" stop-opacity="0.24"/>
</linearGradient>
</defs>
</svg>
